<svg version="1.1" viewBox="0.0 0.0 960.0 540.0" fill="none" stroke="none" stroke-linecap="square" stroke-miterlimit="10" xmlns:xlink="http://www.w3.org/1999/xlink" xmlns="http://www.w3.org/2000/svg"><clipPath id="p.0"><path d="m0 0l960.0 0l0 540.0l-960.0 0l0 -540.0z" clip-rule="nonzero"/></clipPath><g clip-path="url(#p.0)"><path fill="#ffffff" d="m0 0l960.0 0l0 540.0l-960.0 0z" fill-rule="evenodd"/><path fill="#a5a5a5" d="m535.33856 376.6616l0 0c0 -4.429962 3.5911865 -8.021179 8.021179 -8.021179l374.82385 0c2.1273193 0 4.1675415 0.8450928 5.671814 2.3493652c1.5042114 1.504242 2.3493042 3.544464 2.3493042 5.671814l0 32.08365c0 4.429962 -3.5911865 8.021179 -8.021118 8.021179l-374.82385 0c-4.4299927 0 -8.021179 -3.591217 -8.021179 -8.021179z" fill-rule="evenodd"/><path stroke="#7f7f7f" stroke-width="1.0" stroke-linejoin="round" stroke-linecap="butt" d="m535.33856 376.6616l0 0c0 -4.429962 3.5911865 -8.021179 8.021179 -8.021179l374.82385 0c2.1273193 0 4.1675415 0.8450928 5.671814 2.3493652c1.5042114 1.504242 2.3493042 3.544464 2.3493042 5.671814l0 32.08365c0 4.429962 -3.5911865 8.021179 -8.021118 8.021179l-374.82385 0c-4.4299927 0 -8.021179 -3.591217 -8.021179 -8.021179z" fill-rule="evenodd"/><path fill="#ffffff" d="m717.61346 399.6234l-1.3125 0l-7.21875 -10.96875l0 10.96875l-1.296875 0l0 -13.046875l1.296875 0l7.21875 10.953125l0 -10.953125l1.3125 0l0 13.046875zm7.4231567 0.15625q-1.4375 0 -2.59375 -0.640625q-1.140625 -0.65625 -1.8125 -1.828125q-0.65625 -1.1875 -0.65625 -2.78125q0 -1.578125 0.671875 -2.765625q0.671875 -1.1875 1.828125 -1.828125q1.15625 -0.640625 2.59375 -0.640625q1.4375 0 2.59375 0.640625q1.171875 0.640625 1.828125 1.828125q0.671875 1.1875 0.671875 2.765625q0 1.5625 -0.671875 2.765625q-0.671875 1.1875 -1.84375 1.84375q-1.171875 0.640625 -2.609375 0.640625zm0 -1.140625q1.0 0 1.859375 -0.453125q0.859375 -0.46875 1.390625 -1.390625q0.53125 -0.921875 0.53125 -2.265625q0 -1.34375 -0.53125 -2.265625q-0.515625 -0.921875 -1.375 -1.375q-0.84375 -0.46875 -1.859375 -0.46875q-1.0 0 -1.859375 0.46875q-0.859375 0.453125 -1.375 1.375q-0.515625 0.921875 -0.515625 2.265625q0 1.34375 0.515625 2.265625q0.515625 0.921875 1.359375 1.390625q0.84375 0.453125 1.859375 0.453125zm6.914856 -4.125q0 -1.5625 0.640625 -2.75q0.640625 -1.1875 1.75 -1.828125q1.109375 -0.640625 2.5 -0.640625q1.34375 0 2.421875 0.65625q1.09375 0.640625 1.59375 1.6875l0 -5.828125l1.296875 0l0 13.8125l-1.296875 0l0 -2.28125q-0.46875 1.0625 -1.53125 1.75q-1.0625 0.6875 -2.5 0.6875q-1.40625 0 -2.515625 -0.65625q-1.109375 -0.65625 -1.734375 -1.84375q-0.625 -1.203125 -0.625 -2.765625zm8.90625 0.015625q0 -1.234375 -0.515625 -2.15625q-0.5 -0.9375 -1.375 -1.4375q-0.859375 -0.515625 -1.90625 -0.515625q-1.078125 0 -1.9375 0.484375q-0.859375 0.484375 -1.359375 1.421875q-0.484375 0.921875 -0.484375 2.1875q0 1.25 0.484375 2.1875q0.5 0.9375 1.359375 1.4375q0.859375 0.5 1.9375 0.5q1.046875 0 1.90625 -0.5q0.875 -0.515625 1.375 -1.4375q0.515625 -0.9375 0.515625 -2.171875zm13.499207 -0.515625q0 0.671875 -0.03125 1.015625l-8.453125 0q0.0625 1.15625 0.5625 1.984375q0.5 0.8125 1.3125 1.234375q0.828125 0.421875 1.796875 0.421875q1.265625 0 2.140625 -0.609375q0.875 -0.625 1.140625 -1.671875l1.390625 0q-0.375 1.5 -1.59375 2.453125q-1.21875 0.9375 -3.078125 0.9375q-1.4375 0 -2.578125 -0.640625q-1.125 -0.65625 -1.78125 -1.828125q-0.640625 -1.1875 -0.640625 -2.78125q0 -1.578125 0.640625 -2.765625q0.640625 -1.203125 1.765625 -1.828125q1.140625 -0.640625 2.59375 -0.640625q1.453125 0 2.546875 0.640625q1.09375 0.625 1.671875 1.703125q0.59375 1.0625 0.59375 2.375zm-1.3125 -0.046875q0.015625 -1.140625 -0.46875 -1.9375q-0.46875 -0.796875 -1.296875 -1.203125q-0.8125 -0.421875 -1.78125 -0.421875q-1.453125 0 -2.484375 0.9375q-1.03125 0.9375 -1.140625 2.625l7.171875 0z" fill-rule="nonzero"/><path fill="#a5a5a5" d="m52.17848 376.6616l0 0c0 -4.429962 3.5911942 -8.021179 8.021156 -8.021179l374.82382 0c2.1273499 0 4.1675415 0.8450928 5.671814 2.3493652c1.504242 1.504242 2.3493347 3.544464 2.3493347 5.671814l0 32.08365c0 4.429962 -3.5911865 8.021179 -8.021149 8.021179l-374.82382 0c-4.429962 0 -8.021156 -3.591217 -8.021156 -8.021179z" fill-rule="evenodd"/><path stroke="#7f7f7f" stroke-width="1.0" stroke-linejoin="round" stroke-linecap="butt" d="m52.17848 376.6616l0 0c0 -4.429962 3.5911942 -8.021179 8.021156 -8.021179l374.82382 0c2.1273499 0 4.1675415 0.8450928 5.671814 2.3493652c1.504242 1.504242 2.3493347 3.544464 2.3493347 5.671814l0 32.08365c0 4.429962 -3.5911865 8.021179 -8.021149 8.021179l-374.82382 0c-4.429962 0 -8.021156 -3.591217 -8.021156 -8.021179z" fill-rule="evenodd"/><path fill="#ffffff" d="m234.45335 399.6234l-1.3125 0l-7.21875 -10.96875l0 10.96875l-1.296875 0l0 -13.046875l1.296875 0l7.21875 10.953125l0 -10.953125l1.3125 0l0 13.046875zm7.4231873 0.15625q-1.4375 0 -2.59375 -0.640625q-1.140625 -0.65625 -1.8125 -1.828125q-0.65625 -1.1875 -0.65625 -2.78125q0 -1.578125 0.671875 -2.765625q0.671875 -1.1875 1.828125 -1.828125q1.15625 -0.640625 2.59375 -0.640625q1.4375 0 2.59375 0.640625q1.171875 0.640625 1.828125 1.828125q0.671875 1.1875 0.671875 2.765625q0 1.5625 -0.671875 2.765625q-0.671875 1.1875 -1.84375 1.84375q-1.171875 0.640625 -2.609375 0.640625zm0 -1.140625q1.0 0 1.859375 -0.453125q0.859375 -0.46875 1.390625 -1.390625q0.53125 -0.921875 0.53125 -2.265625q0 -1.34375 -0.53125 -2.265625q-0.515625 -0.921875 -1.375 -1.375q-0.84375 -0.46875 -1.859375 -0.46875q-1.0 0 -1.859375 0.46875q-0.859375 0.453125 -1.375 1.375q-0.515625 0.921875 -0.515625 2.265625q0 1.34375 0.515625 2.265625q0.515625 0.921875 1.359375 1.390625q0.84375 0.453125 1.859375 0.453125zm6.91481 -4.125q0 -1.5625 0.640625 -2.75q0.640625 -1.1875 1.75 -1.828125q1.109375 -0.640625 2.5 -0.640625q1.34375 0 2.421875 0.65625q1.09375 0.640625 1.59375 1.6875l0 -5.828125l1.296875 0l0 13.8125l-1.296875 0l0 -2.28125q-0.46875 1.0625 -1.53125 1.75q-1.0625 0.6875 -2.5 0.6875q-1.40625 0 -2.515625 -0.65625q-1.109375 -0.65625 -1.734375 -1.84375q-0.625 -1.203125 -0.625 -2.765625zm8.90625 0.015625q0 -1.234375 -0.515625 -2.15625q-0.5 -0.9375 -1.375 -1.4375q-0.859375 -0.515625 -1.90625 -0.515625q-1.078125 0 -1.9375 0.484375q-0.859375 0.484375 -1.359375 1.421875q-0.484375 0.921875 -0.484375 2.1875q0 1.25 0.484375 2.1875q0.5 0.9375 1.359375 1.4375q0.859375 0.5 1.9375 0.5q1.046875 0 1.90625 -0.5q0.875 -0.515625 1.375 -1.4375q0.515625 -0.9375 0.515625 -2.171875zm13.499207 -0.515625q0 0.671875 -0.03125 1.015625l-8.453125 0q0.0625 1.15625 0.5625 1.984375q0.5 0.8125 1.3125 1.234375q0.828125 0.421875 1.796875 0.421875q1.265625 0 2.140625 -0.609375q0.875 -0.625 1.140625 -1.671875l1.390625 0q-0.375 1.5 -1.59375 2.453125q-1.21875 0.9375 -3.078125 0.9375q-1.4375 0 -2.578125 -0.640625q-1.125 -0.65625 -1.78125 -1.828125q-0.640625 -1.1875 -0.640625 -2.78125q0 -1.578125 0.640625 -2.765625q0.640625 -1.203125 1.765625 -1.828125q1.140625 -0.640625 2.59375 -0.640625q1.453125 0 2.546875 0.640625q1.09375 0.625 1.671875 1.703125q0.59375 1.0625 0.59375 2.375zm-1.3125 -0.046875q0.015625 -1.140625 -0.46875 -1.9375q-0.46875 -0.796875 -1.296875 -1.203125q-0.8125 -0.421875 -1.78125 -0.421875q-1.453125 0 -2.484375 0.9375q-1.03125 0.9375 -1.140625 2.625l7.171875 0z" fill-rule="nonzero"/><path fill="#30ba78" d="m52.17848 279.57248l0 0c0 -8.639587 7.003769 -15.643341 15.64336 -15.643341l359.57944 0c4.1488647 0 8.127808 1.6481323 11.061523 4.5818176c2.9336853 2.9337158 4.5818176 6.9126587 4.5818176 11.061523l0 62.571564c0 8.639587 -7.0037537 15.643372 -15.643341 15.643372l-359.57944 0c-8.639591 0 -15.64336 -7.003784 -15.64336 -15.643372z" fill-rule="evenodd"/><path fill="#ffffff" d="m228.2448 316.71576l4.6875 0l0 1.0625l-5.984375 0l0 -13.046875l1.296875 0l0 11.984375zm7.1980286 -11.046875q-0.390625 0 -0.671875 -0.28125q-0.28125 -0.28125 -0.28125 -0.6875q0 -0.40625 0.28125 -0.671875q0.28125 -0.28125 0.671875 -0.28125q0.390625 0 0.671875 0.28125q0.28125 0.265625 0.28125 0.671875q0 0.40625 -0.28125 0.6875q-0.28125 0.28125 -0.671875 0.28125zm0.65625 1.921875l0 10.1875l-1.296875 0l0 -10.1875l1.296875 0zm7.741028 -0.1875q1.828125 0 2.984375 1.140625q1.15625 1.125 1.15625 3.265625l0 5.96875l-1.28125 0l0 -5.828125q0 -1.65625 -0.828125 -2.53125q-0.828125 -0.875 -2.265625 -0.875q-1.484375 0 -2.359375 0.9375q-0.875 0.921875 -0.875 2.734375l0 5.5625l-1.296875 0l0 -10.1875l1.296875 0l0 1.734375q0.484375 -0.9375 1.390625 -1.421875q0.921875 -0.5 2.078125 -0.5zm15.856277 0.1875l0 10.1875l-1.296875 0l0 -1.796875q-0.453125 0.953125 -1.390625 1.46875q-0.921875 0.5 -2.078125 0.5q-1.828125 0 -2.984375 -1.125q-1.15625 -1.140625 -1.15625 -3.28125l0 -5.953125l1.28125 0l0 5.796875q0 1.671875 0.828125 2.546875q0.828125 0.875 2.265625 0.875q1.46875 0 2.34375 -0.921875q0.890625 -0.9375 0.890625 -2.75l0 -5.546875l1.296875 0zm8.325043 10.1875l-2.625 -4.109375l-2.546875 4.109375l-1.375 0l3.28125 -5.09375l-3.25 -5.09375l1.484375 0l2.59375 4.046875l2.515625 -4.046875l1.359375 0l-3.25 5.03125l3.28125 5.15625l-1.46875 0z" fill-rule="nonzero"/><path fill="#30ba78" d="m535.33856 279.57248l0 0c0 -8.639587 7.003784 -15.643341 15.643372 -15.643341l359.5794 0c4.148926 0 8.127869 1.6481323 11.061523 4.5818176c2.9337158 2.9337158 4.581848 6.9126587 4.581848 11.061523l0 62.571564c0 8.639587 -7.003784 15.643372 -15.643372 15.643372l-359.5794 0c-8.639587 0 -15.643372 -7.003784 -15.643372 -15.643372z" fill-rule="evenodd"/><path fill="#ffffff" d="m711.4049 316.71576l4.6875 0l0 1.0625l-5.984375 0l0 -13.046875l1.296875 0l0 11.984375zm7.198059 -11.046875q-0.390625 0 -0.671875 -0.28125q-0.28125 -0.28125 -0.28125 -0.6875q0 -0.40625 0.28125 -0.671875q0.28125 -0.28125 0.671875 -0.28125q0.390625 0 0.671875 0.28125q0.28125 0.265625 0.28125 0.671875q0 0.40625 -0.28125 0.6875q-0.28125 0.28125 -0.671875 0.28125zm0.65625 1.921875l0 10.1875l-1.296875 0l0 -10.1875l1.296875 0zm7.741028 -0.1875q1.828125 0 2.984375 1.140625q1.15625 1.125 1.15625 3.265625l0 5.96875l-1.28125 0l0 -5.828125q0 -1.65625 -0.828125 -2.53125q-0.828125 -0.875 -2.265625 -0.875q-1.484375 0 -2.359375 0.9375q-0.875 0.921875 -0.875 2.734375l0 5.5625l-1.296875 0l0 -10.1875l1.296875 0l0 1.734375q0.484375 -0.9375 1.390625 -1.421875q0.921875 -0.5 2.078125 -0.5zm15.856262 0.1875l0 10.1875l-1.296875 0l0 -1.796875q-0.453125 0.953125 -1.390625 1.46875q-0.921875 0.5 -2.078125 0.5q-1.828125 0 -2.984375 -1.125q-1.15625 -1.140625 -1.15625 -3.28125l0 -5.953125l1.28125 0l0 5.796875q0 1.671875 0.828125 2.546875q0.828125 0.875 2.265625 0.875q1.46875 0 2.34375 -0.921875q0.890625 -0.9375 0.890625 -2.75l0 -5.546875l1.296875 0zm8.325012 10.1875l-2.625 -4.109375l-2.546875 4.109375l-1.375 0l3.28125 -5.09375l-3.25 -5.09375l1.484375 0l2.59375 4.046875l2.515625 -4.046875l1.359375 0l-3.25 5.03125l3.28125 5.15625l-1.46875 0z" fill-rule="nonzero"/><path fill="#4a86e8" d="m278.82416 277.29675l0 0c0 -4.429962 3.5911865 -8.021149 8.021149 -8.021149l140.17816 0c2.1273499 0 4.1675415 0.84506226 5.671814 2.3493347c1.504242 1.504242 2.3493347 3.544464 2.3493347 5.671814l0 32.08368c0 4.429962 -3.5911865 8.021149 -8.021149 8.021149l-140.17816 0c-4.429962 0 -8.021149 -3.5911865 -8.021149 -8.021149z" fill-rule="evenodd"/><path fill="#ffffff" d="m327.1049 300.25858l-5.65625 -6.03125l0 6.03125l-1.296875 0l0 -13.046875l1.296875 0l0 6.109375l5.65625 -6.109375l1.65625 0l-6.09375 6.515625l6.15625 6.53125l-1.71875 0zm12.456116 -10.1875l0 10.1875l-1.296875 0l0 -1.796875q-0.453125 0.953125 -1.390625 1.46875q-0.921875 0.5 -2.078125 0.5q-1.828125 0 -2.984375 -1.125q-1.15625 -1.140625 -1.15625 -3.28125l0 -5.953125l1.28125 0l0 5.796875q0 1.671875 0.828125 2.546875q0.828125 0.875 2.265625 0.875q1.46875 0 2.34375 -0.921875q0.890625 -0.9375 0.890625 -2.75l0 -5.546875l1.296875 0zm4.2781677 2.265625q0.5 -1.078125 1.546875 -1.734375q1.0625 -0.671875 2.5 -0.671875q1.40625 0 2.5 0.640625q1.09375 0.640625 1.71875 1.828125q0.625 1.1875 0.625 2.75q0 1.5625 -0.625 2.765625q-0.625 1.1875 -1.734375 1.84375q-1.109375 0.65625 -2.484375 0.65625q-1.453125 0 -2.515625 -0.65625q-1.046875 -0.671875 -1.53125 -1.734375l0 2.234375l-1.28125 0l0 -13.8125l1.28125 0l0 5.890625zm7.578125 2.8125q0 -1.265625 -0.5 -2.1875q-0.5 -0.9375 -1.359375 -1.421875q-0.84375 -0.484375 -1.9375 -0.484375q-1.046875 0 -1.921875 0.515625q-0.859375 0.5 -1.359375 1.4375q-0.5 0.921875 -0.5 2.15625q0 1.234375 0.5 2.171875q0.5 0.921875 1.359375 1.4375q0.875 0.5 1.921875 0.5q1.09375 0 1.9375 -0.5q0.859375 -0.5 1.359375 -1.4375q0.5 -0.9375 0.5 -2.1875zm12.936707 -0.5q0 0.671875 -0.03125 1.015625l-8.453125 0q0.0625 1.15625 0.5625 1.984375q0.5 0.8125 1.3125 1.234375q0.828125 0.421875 1.796875 0.421875q1.265625 0 2.140625 -0.609375q0.875 -0.625 1.140625 -1.671875l1.390625 0q-0.375 1.5 -1.59375 2.453125q-1.21875 0.9375 -3.078125 0.9375q-1.4375 0 -2.578125 -0.640625q-1.125 -0.65625 -1.78125 -1.828125q-0.640625 -1.1875 -0.640625 -2.78125q0 -1.578125 0.640625 -2.765625q0.640625 -1.203125 1.765625 -1.828125q1.140625 -0.640625 2.59375 -0.640625q1.453125 0 2.546875 0.640625q1.09375 0.625 1.671875 1.703125q0.59375 1.0625 0.59375 2.375zm-1.3125 -0.046875q0.015625 -1.140625 -0.46875 -1.9375q-0.46875 -0.796875 -1.296875 -1.203125q-0.8125 -0.421875 -1.78125 -0.421875q-1.453125 0 -2.484375 0.9375q-1.03125 0.9375 -1.140625 2.625l7.171875 0zm14.041687 -7.390625l-4.9375 13.046875l-1.5 0l-4.9375 -13.046875l1.40625 0l4.28125 11.625l4.3125 -11.625l1.375 0zm2.606964 0.9375q-0.390625 0 -0.671875 -0.28125q-0.28125 -0.28125 -0.28125 -0.6875q0 -0.40625 0.28125 -0.671875q0.28125 -0.28125 0.671875 -0.28125q0.390625 0 0.671875 0.28125q0.28125 0.265625 0.28125 0.671875q0 0.40625 -0.28125 0.6875q-0.28125 0.28125 -0.671875 0.28125zm0.65625 1.921875l0 10.1875l-1.296875 0l0 -10.1875l1.296875 0zm4.272278 1.8125q0.4375 -0.953125 1.3125 -1.46875q0.890625 -0.53125 2.171875 -0.53125l0 1.359375l-0.34375 0q-1.421875 0 -2.28125 0.765625q-0.859375 0.765625 -0.859375 2.5625l0 5.6875l-1.296875 0l0 -10.1875l1.296875 0l0 1.8125zm7.1441956 -0.703125l0 6.3125q0 0.9375 0.359375 1.296875q0.359375 0.34375 1.25 0.34375l1.1875 0l0 1.125l-1.390625 0q-1.390625 0 -2.0625 -0.640625q-0.671875 -0.640625 -0.671875 -2.125l0 -6.3125l-1.40625 0l0 -1.109375l1.40625 0l0 -2.5625l1.328125 0l0 2.5625l2.796875 0l0 1.109375l-2.796875 0z" fill-rule="nonzero"/><path fill="#4a86e8" d="m763.22046 277.29675l0 0c0 -4.429962 3.5911865 -8.021149 8.021179 -8.021149l140.17816 0c2.1273193 0 4.1675415 0.84506226 5.671814 2.3493347c1.5042725 1.504242 2.3493042 3.544464 2.3493042 5.671814l0 32.08368c0 4.429962 -3.5911865 8.021149 -8.021118 8.021149l-140.17816 0c-4.4299927 0 -8.021179 -3.5911865 -8.021179 -8.021149z" fill-rule="evenodd"/><path fill="#ffffff" d="m811.5012 300.25858l-5.65625 -6.03125l0 6.03125l-1.296875 0l0 -13.046875l1.296875 0l0 6.109375l5.65625 -6.109375l1.65625 0l-6.09375 6.515625l6.15625 6.53125l-1.71875 0zm12.456116 -10.1875l0 10.1875l-1.296875 0l0 -1.796875q-0.453125 0.953125 -1.390625 1.46875q-0.921875 0.5 -2.078125 0.5q-1.828125 0 -2.984375 -1.125q-1.15625 -1.140625 -1.15625 -3.28125l0 -5.953125l1.28125 0l0 5.796875q0 1.671875 0.828125 2.546875q0.828125 0.875 2.265625 0.875q1.46875 0 2.34375 -0.921875q0.890625 -0.9375 0.890625 -2.75l0 -5.546875l1.296875 0zm4.278137 2.265625q0.5 -1.078125 1.546875 -1.734375q1.0625 -0.671875 2.5 -0.671875q1.40625 0 2.5 0.640625q1.09375 0.640625 1.71875 1.828125q0.625 1.1875 0.625 2.75q0 1.5625 -0.625 2.765625q-0.625 1.1875 -1.734375 1.84375q-1.109375 0.65625 -2.484375 0.65625q-1.453125 0 -2.515625 -0.65625q-1.046875 -0.671875 -1.53125 -1.734375l0 2.234375l-1.28125 0l0 -13.8125l1.28125 0l0 5.890625zm7.578125 2.8125q0 -1.265625 -0.5 -2.1875q-0.5 -0.9375 -1.359375 -1.421875q-0.84375 -0.484375 -1.9375 -0.484375q-1.046875 0 -1.921875 0.515625q-0.859375 0.5 -1.359375 1.4375q-0.5 0.921875 -0.5 2.15625q0 1.234375 0.5 2.171875q0.5 0.921875 1.359375 1.4375q0.875 0.5 1.921875 0.5q1.09375 0 1.9375 -0.5q0.859375 -0.5 1.359375 -1.4375q0.5 -0.9375 0.5 -2.1875zm12.936707 -0.5q0 0.671875 -0.03125 1.015625l-8.453125 0q0.0625 1.15625 0.5625 1.984375q0.5 0.8125 1.3125 1.234375q0.828125 0.421875 1.796875 0.421875q1.265625 0 2.140625 -0.609375q0.875 -0.625 1.140625 -1.671875l1.390625 0q-0.375 1.5 -1.59375 2.453125q-1.21875 0.9375 -3.078125 0.9375q-1.4375 0 -2.578125 -0.640625q-1.125 -0.65625 -1.78125 -1.828125q-0.640625 -1.1875 -0.640625 -2.78125q0 -1.578125 0.640625 -2.765625q0.640625 -1.203125 1.765625 -1.828125q1.140625 -0.640625 2.59375 -0.640625q1.453125 0 2.546875 0.640625q1.09375 0.625 1.671875 1.703125q0.59375 1.0625 0.59375 2.375zm-1.3125 -0.046875q0.015625 -1.140625 -0.46875 -1.9375q-0.46875 -0.796875 -1.296875 -1.203125q-0.8125 -0.421875 -1.78125 -0.421875q-1.453125 0 -2.484375 0.9375q-1.03125 0.9375 -1.140625 2.625l7.171875 0zm14.041687 -7.390625l-4.9375 13.046875l-1.5 0l-4.9375 -13.046875l1.40625 0l4.28125 11.625l4.3125 -11.625l1.375 0zm2.6069946 0.9375q-0.390625 0 -0.671875 -0.28125q-0.28125 -0.28125 -0.28125 -0.6875q0 -0.40625 0.28125 -0.671875q0.28125 -0.28125 0.671875 -0.28125q0.390625 0 0.671875 0.28125q0.28125 0.265625 0.28125 0.671875q0 0.40625 -0.28125 0.6875q-0.28125 0.28125 -0.671875 0.28125zm0.65625 1.921875l0 10.1875l-1.296875 0l0 -10.1875l1.296875 0zm4.272278 1.8125q0.4375 -0.953125 1.3125 -1.46875q0.890625 -0.53125 2.171875 -0.53125l0 1.359375l-0.34375 0q-1.421875 0 -2.28125 0.765625q-0.859375 0.765625 -0.859375 2.5625l0 5.6875l-1.296875 0l0 -10.1875l1.296875 0l0 1.8125zm7.144165 -0.703125l0 6.3125q0 0.9375 0.359375 1.296875q0.359375 0.34375 1.25 0.34375l1.1875 0l0 1.125l-1.390625 0q-1.390625 0 -2.0625 -0.640625q-0.671875 -0.640625 -0.671875 -2.125l0 -6.3125l-1.40625 0l0 -1.109375l1.40625 0l0 -2.5625l1.328125 0l0 2.5625l2.796875 0l0 1.109375l-2.796875 0z" fill-rule="nonzero"/><path fill="#fe7c3f" d="m58.404198 277.29675l0 0c0 -4.429962 3.591198 -8.021149 8.021156 -8.021149l140.17816 0c2.1273346 0 4.167557 0.84506226 5.671814 2.3493347c1.5042572 1.504242 2.3493347 3.544464 2.3493347 5.671814l0 32.08368c0 4.429962 -3.5911865 8.021149 -8.021149 8.021149l-140.17816 0c-4.4299583 0 -8.021156 -3.5911865 -8.021156 -8.021149z" fill-rule="evenodd"/><path fill="#ffffff" d="m96.019485 299.19608l4.6875 0l0 1.0625l-5.984375 0l0 -13.046875l1.296875 0l0 11.984375zm11.010529 1.21875q-1.4375 0 -2.59375 -0.640625q-1.140625 -0.65625 -1.8125 -1.828125q-0.65625 -1.1875 -0.65625 -2.78125q0 -1.578125 0.671875 -2.765625q0.671875 -1.1875 1.828125 -1.828125q1.15625 -0.640625 2.59375 -0.640625q1.4375 0 2.59375 0.640625q1.171875 0.640625 1.828125 1.828125q0.671875 1.1875 0.671875 2.765625q0 1.5625 -0.671875 2.765625q-0.671875 1.1875 -1.84375 1.84375q-1.171875 0.640625 -2.609375 0.640625zm0 -1.140625q1.0 0 1.859375 -0.453125q0.859375 -0.46875 1.390625 -1.390625q0.53125 -0.921875 0.53125 -2.265625q0 -1.34375 -0.53125 -2.265625q-0.515625 -0.921875 -1.375 -1.375q-0.84375 -0.46875 -1.859375 -0.46875q-1.0 0 -1.859375 0.46875q-0.859375 0.453125 -1.375 1.375q-0.515625 0.921875 -0.515625 2.265625q0 1.34375 0.515625 2.265625q0.515625 0.921875 1.359375 1.390625q0.84375 0.453125 1.859375 0.453125zm12.28981 -9.390625q1.828125 0 2.984375 1.140625q1.15625 1.125 1.15625 3.265625l0 5.96875l-1.28125 0l0 -5.828125q0 -1.65625 -0.828125 -2.53125q-0.828125 -0.875 -2.265625 -0.875q-1.484375 0 -2.359375 0.9375q-0.875 0.921875 -0.875 2.734375l0 5.5625l-1.296875 0l0 -10.1875l1.296875 0l0 1.734375q0.484375 -0.9375 1.390625 -1.421875q0.921875 -0.5 2.078125 -0.5zm11.309402 0.046875q1.4375 0 2.5 0.671875q1.0625 0.65625 1.53125 1.6875l0 -2.21875l1.296875 0l0 10.453125q0 1.390625 -0.609375 2.46875q-0.59375 1.09375 -1.6875 1.671875q-1.078125 0.59375 -2.453125 0.59375q-1.953125 0 -3.25 -0.9375q-1.296875 -0.921875 -1.625 -2.53125l1.296875 0q0.328125 1.0625 1.265625 1.6875q0.953125 0.640625 2.3125 0.640625q0.984375 0 1.765625 -0.421875q0.796875 -0.421875 1.234375 -1.25q0.453125 -0.8125 0.453125 -1.921875l0 -2.515625q-0.484375 1.03125 -1.546875 1.71875q-1.046875 0.6875 -2.484375 0.6875q-1.40625 0 -2.515625 -0.65625q-1.109375 -0.65625 -1.734375 -1.84375q-0.625 -1.203125 -0.625 -2.765625q0 -1.5625 0.625 -2.75q0.625 -1.1875 1.734375 -1.828125q1.109375 -0.640625 2.515625 -0.640625zm4.03125 5.234375q0 -1.234375 -0.515625 -2.15625q-0.5 -0.9375 -1.375 -1.4375q-0.859375 -0.515625 -1.90625 -0.515625q-1.078125 0 -1.9375 0.484375q-0.859375 0.484375 -1.359375 1.421875q-0.484375 0.921875 -0.484375 2.1875q0 1.25 0.484375 2.1875q0.5 0.9375 1.359375 1.4375q0.859375 0.5 1.9375 0.5q1.046875 0 1.90625 -0.5q0.875 -0.515625 1.375 -1.4375q0.515625 -0.9375 0.515625 -2.171875zm9.139847 -5.28125q1.15625 0 2.078125 0.484375q0.921875 0.484375 1.453125 1.484375q0.53125 1.0 0.53125 2.4375l0 5.96875l-1.28125 0l0 -5.828125q0 -1.65625 -0.828125 -2.53125q-0.828125 -0.875 -2.265625 -0.875q-1.484375 0 -2.359375 0.9375q-0.875 0.921875 -0.875 2.734375l0 5.5625l-1.296875 0l0 -13.8125l1.296875 0l0 5.359375q0.484375 -0.90625 1.421875 -1.40625q0.953125 -0.515625 2.125 -0.515625zm11.418777 10.53125q-1.4375 0 -2.59375 -0.640625q-1.140625 -0.65625 -1.8125 -1.828125q-0.65625 -1.1875 -0.65625 -2.78125q0 -1.578125 0.671875 -2.765625q0.671875 -1.1875 1.828125 -1.828125q1.15625 -0.640625 2.59375 -0.640625q1.4375 0 2.59375 0.640625q1.171875 0.640625 1.828125 1.828125q0.671875 1.1875 0.671875 2.765625q0 1.5625 -0.671875 2.765625q-0.671875 1.1875 -1.84375 1.84375q-1.171875 0.640625 -2.609375 0.640625zm0 -1.140625q1.0 0 1.859375 -0.453125q0.859375 -0.46875 1.390625 -1.390625q0.53125 -0.921875 0.53125 -2.265625q0 -1.34375 -0.53125 -2.265625q-0.515625 -0.921875 -1.375 -1.375q-0.84375 -0.46875 -1.859375 -0.46875q-1.0 0 -1.859375 0.46875q-0.859375 0.453125 -1.375 1.375q-0.515625 0.921875 -0.515625 2.265625q0 1.34375 0.515625 2.265625q0.515625 0.921875 1.359375 1.390625q0.84375 0.453125 1.859375 0.453125zm8.82106 -7.390625q0.4375 -0.953125 1.3125 -1.46875q0.890625 -0.53125 2.171875 -0.53125l0 1.359375l-0.34375 0q-1.421875 0 -2.28125 0.765625q-0.859375 0.765625 -0.859375 2.5625l0 5.6875l-1.296875 0l0 -10.1875l1.296875 0l0 1.8125zm10.222321 -2.0q1.828125 0 2.984375 1.140625q1.15625 1.125 1.15625 3.265625l0 5.96875l-1.28125 0l0 -5.828125q0 -1.65625 -0.828125 -2.53125q-0.828125 -0.875 -2.265625 -0.875q-1.484375 0 -2.359375 0.9375q-0.875 0.921875 -0.875 2.734375l0 5.5625l-1.296875 0l0 -10.1875l1.296875 0l0 1.734375q0.484375 -0.9375 1.390625 -1.421875q0.921875 -0.5 2.078125 -0.5z" fill-rule="nonzero"/><path fill="#fe7c3f" d="m542.10236 277.29675l0 0c0 -4.429962 3.5911865 -8.021149 8.021179 -8.021149l140.17816 0c2.1273193 0 4.1675415 0.84506226 5.671814 2.3493347c1.5042114 1.504242 2.3493042 3.544464 2.3493042 5.671814l0 32.08368c0 4.429962 -3.5911865 8.021149 -8.021118 8.021149l-140.17816 0c-4.4299927 0 -8.021179 -3.5911865 -8.021179 -8.021149z" fill-rule="evenodd"/><path fill="#ffffff" d="m579.71765 299.19608l4.6875 0l0 1.0625l-5.984375 0l0 -13.046875l1.296875 0l0 11.984375zm11.010498 1.21875q-1.4375 0 -2.59375 -0.640625q-1.140625 -0.65625 -1.8125 -1.828125q-0.65625 -1.1875 -0.65625 -2.78125q0 -1.578125 0.671875 -2.765625q0.671875 -1.1875 1.828125 -1.828125q1.15625 -0.640625 2.59375 -0.640625q1.4375 0 2.59375 0.640625q1.171875 0.640625 1.828125 1.828125q0.671875 1.1875 0.671875 2.765625q0 1.5625 -0.671875 2.765625q-0.671875 1.1875 -1.84375 1.84375q-1.171875 0.640625 -2.609375 0.640625zm0 -1.140625q1.0 0 1.859375 -0.453125q0.859375 -0.46875 1.390625 -1.390625q0.53125 -0.921875 0.53125 -2.265625q0 -1.34375 -0.53125 -2.265625q-0.515625 -0.921875 -1.375 -1.375q-0.84375 -0.46875 -1.859375 -0.46875q-1.0 0 -1.859375 0.46875q-0.859375 0.453125 -1.375 1.375q-0.515625 0.921875 -0.515625 2.265625q0 1.34375 0.515625 2.265625q0.515625 0.921875 1.359375 1.390625q0.84375 0.453125 1.859375 0.453125zm12.289856 -9.390625q1.828125 0 2.984375 1.140625q1.15625 1.125 1.15625 3.265625l0 5.96875l-1.28125 0l0 -5.828125q0 -1.65625 -0.828125 -2.53125q-0.828125 -0.875 -2.265625 -0.875q-1.484375 0 -2.359375 0.9375q-0.875 0.921875 -0.875 2.734375l0 5.5625l-1.296875 0l0 -10.1875l1.296875 0l0 1.734375q0.484375 -0.9375 1.390625 -1.421875q0.921875 -0.5 2.078125 -0.5zm11.309387 0.046875q1.4375 0 2.5 0.671875q1.0625 0.65625 1.53125 1.6875l0 -2.21875l1.296875 0l0 10.453125q0 1.390625 -0.609375 2.46875q-0.59375 1.09375 -1.6875 1.671875q-1.078125 0.59375 -2.453125 0.59375q-1.953125 0 -3.25 -0.9375q-1.296875 -0.921875 -1.625 -2.53125l1.296875 0q0.328125 1.0625 1.265625 1.6875q0.953125 0.640625 2.3125 0.640625q0.984375 0 1.765625 -0.421875q0.796875 -0.421875 1.234375 -1.25q0.453125 -0.8125 0.453125 -1.921875l0 -2.515625q-0.484375 1.03125 -1.546875 1.71875q-1.046875 0.6875 -2.484375 0.6875q-1.40625 0 -2.515625 -0.65625q-1.109375 -0.65625 -1.734375 -1.84375q-0.625 -1.203125 -0.625 -2.765625q0 -1.5625 0.625 -2.75q0.625 -1.1875 1.734375 -1.828125q1.109375 -0.640625 2.515625 -0.640625zm4.03125 5.234375q0 -1.234375 -0.515625 -2.15625q-0.5 -0.9375 -1.375 -1.4375q-0.859375 -0.515625 -1.90625 -0.515625q-1.078125 0 -1.9375 0.484375q-0.859375 0.484375 -1.359375 1.421875q-0.484375 0.921875 -0.484375 2.1875q0 1.25 0.484375 2.1875q0.5 0.9375 1.359375 1.4375q0.859375 0.5 1.9375 0.5q1.046875 0 1.90625 -0.5q0.875 -0.515625 1.375 -1.4375q0.515625 -0.9375 0.515625 -2.171875zm9.139832 -5.28125q1.15625 0 2.078125 0.484375q0.921875 0.484375 1.453125 1.484375q0.53125 1.0 0.53125 2.4375l0 5.96875l-1.28125 0l0 -5.828125q0 -1.65625 -0.828125 -2.53125q-0.828125 -0.875 -2.265625 -0.875q-1.484375 0 -2.359375 0.9375q-0.875 0.921875 -0.875 2.734375l0 5.5625l-1.296875 0l0 -13.8125l1.296875 0l0 5.359375q0.484375 -0.90625 1.421875 -1.40625q0.953125 -0.515625 2.125 -0.515625zm11.418762 10.53125q-1.4375 0 -2.59375 -0.640625q-1.140625 -0.65625 -1.8125 -1.828125q-0.65625 -1.1875 -0.65625 -2.78125q0 -1.578125 0.671875 -2.765625q0.671875 -1.1875 1.828125 -1.828125q1.15625 -0.640625 2.59375 -0.640625q1.4375 0 2.59375 0.640625q1.171875 0.640625 1.828125 1.828125q0.671875 1.1875 0.671875 2.765625q0 1.5625 -0.671875 2.765625q-0.671875 1.1875 -1.84375 1.84375q-1.171875 0.640625 -2.609375 0.640625zm0 -1.140625q1.0 0 1.859375 -0.453125q0.859375 -0.46875 1.390625 -1.390625q0.53125 -0.921875 0.53125 -2.265625q0 -1.34375 -0.53125 -2.265625q-0.515625 -0.921875 -1.375 -1.375q-0.84375 -0.46875 -1.859375 -0.46875q-1.0 0 -1.859375 0.46875q-0.859375 0.453125 -1.375 1.375q-0.515625 0.921875 -0.515625 2.265625q0 1.34375 0.515625 2.265625q0.515625 0.921875 1.359375 1.390625q0.84375 0.453125 1.859375 0.453125zm8.821106 -7.390625q0.4375 -0.953125 1.3125 -1.46875q0.890625 -0.53125 2.171875 -0.53125l0 1.359375l-0.34375 0q-1.421875 0 -2.28125 0.765625q-0.859375 0.765625 -0.859375 2.5625l0 5.6875l-1.296875 0l0 -10.1875l1.296875 0l0 1.8125zm10.22229 -2.0q1.828125 0 2.984375 1.140625q1.15625 1.125 1.15625 3.265625l0 5.96875l-1.28125 0l0 -5.828125q0 -1.65625 -0.828125 -2.53125q-0.828125 -0.875 -2.265625 -0.875q-1.484375 0 -2.359375 0.9375q-0.875 0.921875 -0.875 2.734375l0 5.5625l-1.296875 0l0 -10.1875l1.296875 0l0 1.734375q0.484375 -0.9375 1.390625 -1.421875q0.921875 -0.5 2.078125 -0.5z" fill-rule="nonzero"/><path fill="#30ba77" d="m52.17848 192.1866l0 0c0 -6.8362885 5.5419083 -12.378204 12.378201 -12.378204l78.39321 0c3.282898 0 6.4313354 1.3041382 8.752701 3.6254883c2.3213654 2.3213654 3.6254883 5.469818 3.6254883 8.752716l0 49.511322c0 6.8362885 -5.5419006 12.378189 -12.378189 12.378189l-78.39321 0c-6.8362923 0 -12.378201 -5.5419006 -12.378201 -12.378189z" fill-rule="evenodd"/><path fill="#ffffff" d="m102.20368 212.42976l-3.53125 9.3125l-1.0625 0l-3.546875 -9.3125l1.015625 0l3.0625 8.296875l3.078125 -8.296875l0.984375 0zm10.501953 0.109375l0 9.203125l-0.9375 0l0 -7.34375l-3.28125 7.34375l-0.671875 0l-3.28125 -7.3125l0 7.3125l-0.9375 0l0 -9.203125l0.984375 0l3.5625 7.984375l3.5625 -7.984375l1.0 0z" fill-rule="nonzero"/><path fill="#2453ff" d="m196.03674 192.1866l0 0c0 -6.8362885 5.541916 -12.378204 12.378204 -12.378204l78.39322 0c3.282898 0 6.4313354 1.3041382 8.752686 3.6254883c2.3213806 2.3213654 3.6254883 5.469818 3.6254883 8.752716l0 49.511322c0 6.8362885 -5.5419006 12.378189 -12.378174 12.378189l-78.39322 0c-6.8362885 0 -12.378204 -5.5419006 -12.378204 -12.378189z" fill-rule="evenodd"/><path fill="#ffffff" d="m215.44511 217.07039q0 -1.359375 0.59375 -2.4375q0.609375 -1.09375 1.640625 -1.703125q1.046875 -0.609375 2.328125 -0.609375q1.546875 0 2.65625 0.75q1.125 0.734375 1.625 2.078125l-1.09375 0q-0.390625 -0.953125 -1.21875 -1.484375q-0.8125 -0.53125 -1.96875 -0.53125q-1.03125 0 -1.859375 0.484375q-0.8125 0.46875 -1.28125 1.375q-0.46875 0.90625 -0.46875 2.078125q0 1.1875 0.46875 2.09375q0.46875 0.890625 1.28125 1.375q0.828125 0.46875 1.859375 0.46875q1.15625 0 1.96875 -0.515625q0.828125 -0.53125 1.21875 -1.46875l1.09375 0q-0.5 1.328125 -1.625 2.0625q-1.109375 0.734375 -2.65625 0.734375q-1.28125 0 -2.328125 -0.609375q-1.03125 -0.609375 -1.640625 -1.6875q-0.59375 -1.078125 -0.59375 -2.453125zm13.885315 4.78125q-1.03125 0 -1.84375 -0.453125q-0.8125 -0.46875 -1.296875 -1.3125q-0.46875 -0.84375 -0.46875 -1.984375q0 -1.125 0.46875 -1.96875q0.484375 -0.859375 1.3125 -1.3125q0.828125 -0.46875 1.859375 -0.46875q1.015625 0 1.84375 0.46875q0.84375 0.453125 1.3125 1.3125q0.484375 0.84375 0.484375 1.96875q0 1.125 -0.484375 1.984375q-0.484375 0.84375 -1.328125 1.3125q-0.828125 0.453125 -1.859375 0.453125zm0 -0.8125q0.71875 0 1.328125 -0.328125q0.625 -0.328125 1.0 -0.984375q0.375 -0.65625 0.375 -1.625q0 -0.953125 -0.375 -1.609375q-0.375 -0.671875 -0.984375 -1.0q-0.609375 -0.328125 -1.328125 -0.328125q-0.71875 0 -1.34375 0.328125q-0.609375 0.328125 -0.96875 1.0q-0.359375 0.65625 -0.359375 1.609375q0 0.96875 0.359375 1.625q0.359375 0.65625 0.96875 0.984375q0.609375 0.328125 1.328125 0.328125zm8.791 -6.703125q1.296875 0 2.125 0.8125q0.828125 0.796875 0.828125 2.328125l0 4.265625l-0.921875 0l0 -4.15625q0 -1.1875 -0.59375 -1.8125q-0.59375 -0.625 -1.609375 -0.625q-1.0625 0 -1.6875 0.671875q-0.625 0.65625 -0.625 1.953125l0 3.96875l-0.9375 0l0 -7.28125l0.9375 0l0 1.25q0.34375 -0.671875 1.0 -1.015625q0.65625 -0.359375 1.484375 -0.359375zm6.233551 0.921875l0 4.515625q0 0.65625 0.25 0.921875q0.25 0.25 0.890625 0.25l0.859375 0l0 0.796875l-1.0 0q-0.984375 0 -1.46875 -0.453125q-0.484375 -0.46875 -0.484375 -1.515625l0 -4.515625l-1.015625 0l0 -0.796875l1.015625 0l0 -1.828125l0.953125 0l0 1.828125l2.0 0l0 0.796875l-2.0 0zm3.1041718 2.828125q0 -1.109375 0.4375 -1.953125q0.453125 -0.859375 1.25 -1.3125q0.796875 -0.46875 1.796875 -0.46875q1.03125 0 1.78125 0.484375q0.75 0.484375 1.09375 1.234375l0 -1.609375l0.9375 0l0 7.28125l-0.9375 0l0 -1.609375q-0.34375 0.75 -1.109375 1.234375q-0.75 0.484375 -1.78125 0.484375q-0.984375 0 -1.78125 -0.46875q-0.796875 -0.46875 -1.25 -1.3125q-0.4375 -0.859375 -0.4375 -1.984375zm6.359375 0.015625q0 -0.875 -0.359375 -1.53125q-0.359375 -0.671875 -0.984375 -1.03125q-0.625 -0.375 -1.359375 -0.375q-0.78125 0 -1.390625 0.359375q-0.609375 0.34375 -0.96875 1.0q-0.34375 0.65625 -0.34375 1.5625q0 0.890625 0.34375 1.578125q0.359375 0.671875 0.96875 1.03125q0.609375 0.34375 1.390625 0.34375q0.734375 0 1.359375 -0.359375q0.625 -0.359375 0.984375 -1.03125q0.359375 -0.671875 0.359375 -1.546875zm3.5276947 -5.015625q-0.28125 0 -0.484375 -0.1875q-0.1875 -0.203125 -0.1875 -0.5q0 -0.296875 0.1875 -0.484375q0.203125 -0.1875 0.484375 -0.1875q0.28125 0 0.484375 0.1875q0.203125 0.1875 0.203125 0.484375q0 0.296875 -0.203125 0.5q-0.203125 0.1875 -0.484375 0.1875zm0.46875 1.375l0 7.28125l-0.9375 0l0 -7.28125l0.9375 0zm5.536499 -0.125q1.296875 0 2.125 0.8125q0.828125 0.796875 0.828125 2.328125l0 4.265625l-0.921875 0l0 -4.15625q0 -1.1875 -0.59375 -1.8125q-0.59375 -0.625 -1.609375 -0.625q-1.0625 0 -1.6875 0.671875q-0.625 0.65625 -0.625 1.953125l0 3.96875l-0.9375 0l0 -7.28125l0.9375 0l0 1.25q0.34375 -0.671875 1.0 -1.015625q0.65625 -0.359375 1.484375 -0.359375zm11.608551 3.390625q0 0.484375 -0.03125 0.734375l-6.03125 0q0.03125 0.828125 0.390625 1.421875q0.359375 0.578125 0.9375 0.875q0.59375 0.296875 1.296875 0.296875q0.90625 0 1.515625 -0.4375q0.625 -0.4375 0.828125 -1.1875l0.984375 0q-0.265625 1.078125 -1.140625 1.75q-0.875 0.671875 -2.1875 0.671875q-1.03125 0 -1.84375 -0.453125q-0.8125 -0.46875 -1.28125 -1.3125q-0.453125 -0.84375 -0.453125 -1.984375q0 -1.125 0.453125 -1.984375q0.453125 -0.859375 1.265625 -1.3125q0.8125 -0.453125 1.859375 -0.453125q1.03125 0 1.8125 0.453125q0.78125 0.453125 1.203125 1.234375q0.421875 0.765625 0.421875 1.6875zm-0.953125 -0.015625q0.015625 -0.8125 -0.328125 -1.390625q-0.34375 -0.578125 -0.9375 -0.859375q-0.578125 -0.296875 -1.265625 -0.296875q-1.046875 0 -1.78125 0.671875q-0.71875 0.65625 -0.796875 1.875l5.109375 0zm3.5869446 -1.953125q0.3125 -0.671875 0.9375 -1.046875q0.640625 -0.375 1.546875 -0.375l0 0.96875l-0.25 0q-1.015625 0 -1.625 0.546875q-0.609375 0.546875 -0.609375 1.828125l0 4.0625l-0.9375 0l0 -7.28125l0.9375 0l0 1.296875z" fill-rule="nonzero"/><path fill="#30ba77" d="m339.89502 192.1866l0 0c0 -6.8362885 5.5419006 -12.378204 12.378204 -12.378204l78.39319 0c3.282898 0 6.431366 1.3041382 8.752716 3.6254883c2.32135 2.3213654 3.6254883 5.469818 3.6254883 8.752716l0 49.511322c0 6.8362885 -5.5419006 12.378189 -12.378204 12.378189l-78.39319 0c-6.8363037 0 -12.378204 -5.5419006 -12.378204 -12.378189z" fill-rule="evenodd"/><path fill="#ffffff" d="m389.92023 212.42976l-3.53125 9.3125l-1.0625 0l-3.546875 -9.3125l1.015625 0l3.0625 8.296875l3.078125 -8.296875l0.984375 0zm10.501953 0.109375l0 9.203125l-0.9375 0l0 -7.34375l-3.28125 7.34375l-0.671875 0l-3.28125 -7.3125l0 7.3125l-0.9375 0l0 -9.203125l0.984375 0l3.5625 7.984375l3.5625 -7.984375l1.0 0z" fill-rule="nonzero"/><path fill="#30ba77" d="m535.33856 193.39395l0 0c0 -6.8362885 5.541931 -12.378204 12.378235 -12.378204l78.39319 0c3.282898 0 6.4313354 1.3041229 8.752686 3.6254883c2.3214111 2.3213654 3.6254883 5.469803 3.6254883 8.752716l0 49.511307c0 6.8363037 -5.54187 12.378204 -12.378174 12.378204l-78.39319 0c-6.8363037 0 -12.378235 -5.5419006 -12.378235 -12.378204z" fill-rule="evenodd"/><path fill="#ffffff" d="m585.3638 213.6371l-3.53125 9.3125l-1.0625 0l-3.546875 -9.3125l1.015625 0l3.0625 8.296875l3.078125 -8.296875l0.984375 0zm10.501953 0.109375l0 9.203125l-0.9375 0l0 -7.34375l-3.28125 7.34375l-0.671875 0l-3.28125 -7.3125l0 7.3125l-0.9375 0l0 -9.203125l0.984375 0l3.5625 7.984375l3.5625 -7.984375l1.0 0z" fill-rule="nonzero"/><path fill="#2453ff" d="m679.19684 193.39395l0 0c0 -6.8362885 5.541931 -12.378204 12.378235 -12.378204l78.39319 0c3.282898 0 6.4313354 1.3041229 8.752686 3.6254883c2.3214111 2.3213654 3.6254883 5.469803 3.6254883 8.752716l0 49.511307c0 6.8363037 -5.54187 12.378204 -12.378174 12.378204l-78.39319 0c-6.8363037 0 -12.378235 -5.5419006 -12.378235 -12.378204z" fill-rule="evenodd"/><path fill="#ffffff" d="m698.6052 218.27773q0 -1.359375 0.59375 -2.4375q0.609375 -1.09375 1.640625 -1.703125q1.046875 -0.609375 2.328125 -0.609375q1.546875 0 2.65625 0.75q1.125 0.734375 1.625 2.078125l-1.09375 0q-0.390625 -0.953125 -1.21875 -1.484375q-0.8125 -0.53125 -1.96875 -0.53125q-1.03125 0 -1.859375 0.484375q-0.8125 0.46875 -1.28125 1.375q-0.46875 0.90625 -0.46875 2.078125q0 1.1875 0.46875 2.09375q0.46875 0.890625 1.28125 1.375q0.828125 0.46875 1.859375 0.46875q1.15625 0 1.96875 -0.515625q0.828125 -0.53125 1.21875 -1.46875l1.09375 0q-0.5 1.328125 -1.625 2.0625q-1.109375 0.734375 -2.65625 0.734375q-1.28125 0 -2.328125 -0.609375q-1.03125 -0.609375 -1.640625 -1.6875q-0.59375 -1.078125 -0.59375 -2.453125zm13.885315 4.78125q-1.03125 0 -1.84375 -0.453125q-0.8125 -0.46875 -1.296875 -1.3125q-0.46875 -0.84375 -0.46875 -1.984375q0 -1.125 0.46875 -1.96875q0.484375 -0.859375 1.3125 -1.3125q0.828125 -0.46875 1.859375 -0.46875q1.015625 0 1.84375 0.46875q0.84375 0.453125 1.3125 1.3125q0.484375 0.84375 0.484375 1.96875q0 1.125 -0.484375 1.984375q-0.484375 0.84375 -1.328125 1.3125q-0.828125 0.453125 -1.859375 0.453125zm0 -0.8125q0.71875 0 1.328125 -0.328125q0.625 -0.328125 1.0 -0.984375q0.375 -0.65625 0.375 -1.625q0 -0.953125 -0.375 -1.609375q-0.375 -0.671875 -0.984375 -1.0q-0.609375 -0.328125 -1.328125 -0.328125q-0.71875 0 -1.34375 0.328125q-0.609375 0.328125 -0.96875 1.0q-0.359375 0.65625 -0.359375 1.609375q0 0.96875 0.359375 1.625q0.359375 0.65625 0.96875 0.984375q0.609375 0.328125 1.328125 0.328125zm8.791016 -6.703125q1.296875 0 2.125 0.8125q0.828125 0.796875 0.828125 2.328125l0 4.265625l-0.921875 0l0 -4.15625q0 -1.1875 -0.59375 -1.8125q-0.59375 -0.625 -1.609375 -0.625q-1.0625 0 -1.6875 0.671875q-0.625 0.65625 -0.625 1.953125l0 3.96875l-0.9375 0l0 -7.28125l0.9375 0l0 1.25q0.34375 -0.671875 1.0 -1.015625q0.65625 -0.359375 1.484375 -0.359375zm6.2335205 0.921875l0 4.515625q0 0.65625 0.25 0.921875q0.25 0.25 0.890625 0.25l0.859375 0l0 0.796875l-1.0 0q-0.984375 0 -1.46875 -0.453125q-0.484375 -0.46875 -0.484375 -1.515625l0 -4.515625l-1.015625 0l0 -0.796875l1.015625 0l0 -1.828125l0.953125 0l0 1.828125l2.0 0l0 0.796875l-2.0 0zm3.104187 2.828125q0 -1.109375 0.4375 -1.953125q0.453125 -0.859375 1.25 -1.3125q0.796875 -0.46875 1.796875 -0.46875q1.03125 0 1.78125 0.484375q0.75 0.484375 1.09375 1.234375l0 -1.609375l0.9375 0l0 7.28125l-0.9375 0l0 -1.609375q-0.34375 0.75 -1.109375 1.234375q-0.75 0.484375 -1.78125 0.484375q-0.984375 0 -1.78125 -0.46875q-0.796875 -0.46875 -1.25 -1.3125q-0.4375 -0.859375 -0.4375 -1.984375zm6.359375 0.015625q0 -0.875 -0.359375 -1.53125q-0.359375 -0.671875 -0.984375 -1.03125q-0.625 -0.375 -1.359375 -0.375q-0.78125 0 -1.390625 0.359375q-0.609375 0.34375 -0.96875 1.0q-0.34375 0.65625 -0.34375 1.5625q0 0.890625 0.34375 1.578125q0.359375 0.671875 0.96875 1.03125q0.609375 0.34375 1.390625 0.34375q0.734375 0 1.359375 -0.359375q0.625 -0.359375 0.984375 -1.03125q0.359375 -0.671875 0.359375 -1.546875zm3.52771 -5.015625q-0.28125 0 -0.484375 -0.1875q-0.1875 -0.203125 -0.1875 -0.5q0 -0.296875 0.1875 -0.484375q0.203125 -0.1875 0.484375 -0.1875q0.28125 0 0.484375 0.1875q0.203125 0.1875 0.203125 0.484375q0 0.296875 -0.203125 0.5q-0.203125 0.1875 -0.484375 0.1875zm0.46875 1.375l0 7.28125l-0.9375 0l0 -7.28125l0.9375 0zm5.536499 -0.125q1.296875 0 2.125 0.8125q0.828125 0.796875 0.828125 2.328125l0 4.265625l-0.921875 0l0 -4.15625q0 -1.1875 -0.59375 -1.8125q-0.59375 -0.625 -1.609375 -0.625q-1.0625 0 -1.6875 0.671875q-0.625 0.65625 -0.625 1.953125l0 3.96875l-0.9375 0l0 -7.28125l0.9375 0l0 1.25q0.34375 -0.671875 1.0 -1.015625q0.65625 -0.359375 1.484375 -0.359375zm11.6085205 3.390625q0 0.484375 -0.03125 0.734375l-6.03125 0q0.03125 0.828125 0.390625 1.421875q0.359375 0.578125 0.9375 0.875q0.59375 0.296875 1.296875 0.296875q0.90625 0 1.515625 -0.4375q0.625 -0.4375 0.828125 -1.1875l0.984375 0q-0.265625 1.078125 -1.140625 1.75q-0.875 0.671875 -2.1875 0.671875q-1.03125 0 -1.84375 -0.453125q-0.8125 -0.46875 -1.28125 -1.3125q-0.453125 -0.84375 -0.453125 -1.984375q0 -1.125 0.453125 -1.984375q0.453125 -0.859375 1.265625 -1.3125q0.8125 -0.453125 1.859375 -0.453125q1.03125 0 1.8125 0.453125q0.78125 0.453125 1.203125 1.234375q0.421875 0.765625 0.421875 1.6875zm-0.953125 -0.015625q0.015625 -0.8125 -0.328125 -1.390625q-0.34375 -0.578125 -0.9375 -0.859375q-0.578125 -0.296875 -1.265625 -0.296875q-1.046875 0 -1.78125 0.671875q-0.71875 0.65625 -0.796875 1.875l5.109375 0zm3.586975 -1.953125q0.3125 -0.671875 0.9375 -1.046875q0.640625 -0.375 1.546875 -0.375l0 0.96875l-0.25 0q-1.015625 0 -1.625 0.546875q-0.609375 0.546875 -0.609375 1.828125l0 4.0625l-0.9375 0l0 -7.28125l0.9375 0l0 1.296875z" fill-rule="nonzero"/><path fill="#2453ff" d="m823.0551 193.39395l0 0c0 -6.8362885 5.541931 -12.378204 12.378174 -12.378204l78.39325 0c3.282898 0 6.4313354 1.3041229 8.752686 3.6254883c2.32135 2.3213654 3.6254883 5.469803 3.6254883 8.752716l0 49.511307c0 6.8363037 -5.54187 12.378204 -12.378174 12.378204l-78.39325 0c-6.8362427 0 -12.378174 -5.5419006 -12.378174 -12.378204z" fill-rule="evenodd"/><path fill="#ffffff" d="m842.4635 218.27773q0 -1.359375 0.59375 -2.4375q0.609375 -1.09375 1.640625 -1.703125q1.046875 -0.609375 2.328125 -0.609375q1.546875 0 2.65625 0.75q1.125 0.734375 1.625 2.078125l-1.09375 0q-0.390625 -0.953125 -1.21875 -1.484375q-0.8125 -0.53125 -1.96875 -0.53125q-1.03125 0 -1.859375 0.484375q-0.8125 0.46875 -1.28125 1.375q-0.46875 0.90625 -0.46875 2.078125q0 1.1875 0.46875 2.09375q0.46875 0.890625 1.28125 1.375q0.828125 0.46875 1.859375 0.46875q1.15625 0 1.96875 -0.515625q0.828125 -0.53125 1.21875 -1.46875l1.09375 0q-0.5 1.328125 -1.625 2.0625q-1.109375 0.734375 -2.65625 0.734375q-1.28125 0 -2.328125 -0.609375q-1.03125 -0.609375 -1.640625 -1.6875q-0.59375 -1.078125 -0.59375 -2.453125zm13.885315 4.78125q-1.03125 0 -1.84375 -0.453125q-0.8125 -0.46875 -1.296875 -1.3125q-0.46875 -0.84375 -0.46875 -1.984375q0 -1.125 0.46875 -1.96875q0.484375 -0.859375 1.3125 -1.3125q0.828125 -0.46875 1.859375 -0.46875q1.015625 0 1.84375 0.46875q0.84375 0.453125 1.3125 1.3125q0.484375 0.84375 0.484375 1.96875q0 1.125 -0.484375 1.984375q-0.484375 0.84375 -1.328125 1.3125q-0.828125 0.453125 -1.859375 0.453125zm0 -0.8125q0.71875 0 1.328125 -0.328125q0.625 -0.328125 1.0 -0.984375q0.375 -0.65625 0.375 -1.625q0 -0.953125 -0.375 -1.609375q-0.375 -0.671875 -0.984375 -1.0q-0.609375 -0.328125 -1.328125 -0.328125q-0.71875 0 -1.34375 0.328125q-0.609375 0.328125 -0.96875 1.0q-0.359375 0.65625 -0.359375 1.609375q0 0.96875 0.359375 1.625q0.359375 0.65625 0.96875 0.984375q0.609375 0.328125 1.328125 0.328125zm8.791016 -6.703125q1.296875 0 2.125 0.8125q0.828125 0.796875 0.828125 2.328125l0 4.265625l-0.921875 0l0 -4.15625q0 -1.1875 -0.59375 -1.8125q-0.59375 -0.625 -1.609375 -0.625q-1.0625 0 -1.6875 0.671875q-0.625 0.65625 -0.625 1.953125l0 3.96875l-0.9375 0l0 -7.28125l0.9375 0l0 1.25q0.34375 -0.671875 1.0 -1.015625q0.65625 -0.359375 1.484375 -0.359375zm6.2335205 0.921875l0 4.515625q0 0.65625 0.25 0.921875q0.25 0.25 0.890625 0.25l0.859375 0l0 0.796875l-1.0 0q-0.984375 0 -1.46875 -0.453125q-0.484375 -0.46875 -0.484375 -1.515625l0 -4.515625l-1.015625 0l0 -0.796875l1.015625 0l0 -1.828125l0.953125 0l0 1.828125l2.0 0l0 0.796875l-2.0 0zm3.104187 2.828125q0 -1.109375 0.4375 -1.953125q0.453125 -0.859375 1.25 -1.3125q0.796875 -0.46875 1.796875 -0.46875q1.03125 0 1.78125 0.484375q0.75 0.484375 1.09375 1.234375l0 -1.609375l0.9375 0l0 7.28125l-0.9375 0l0 -1.609375q-0.34375 0.75 -1.109375 1.234375q-0.75 0.484375 -1.78125 0.484375q-0.984375 0 -1.78125 -0.46875q-0.796875 -0.46875 -1.25 -1.3125q-0.4375 -0.859375 -0.4375 -1.984375zm6.359375 0.015625q0 -0.875 -0.359375 -1.53125q-0.359375 -0.671875 -0.984375 -1.03125q-0.625 -0.375 -1.359375 -0.375q-0.78125 0 -1.390625 0.359375q-0.609375 0.34375 -0.96875 1.0q-0.34375 0.65625 -0.34375 1.5625q0 0.890625 0.34375 1.578125q0.359375 0.671875 0.96875 1.03125q0.609375 0.34375 1.390625 0.34375q0.734375 0 1.359375 -0.359375q0.625 -0.359375 0.984375 -1.03125q0.359375 -0.671875 0.359375 -1.546875zm3.52771 -5.015625q-0.28125 0 -0.484375 -0.1875q-0.1875 -0.203125 -0.1875 -0.5q0 -0.296875 0.1875 -0.484375q0.203125 -0.1875 0.484375 -0.1875q0.28125 0 0.484375 0.1875q0.203125 0.1875 0.203125 0.484375q0 0.296875 -0.203125 0.5q-0.203125 0.1875 -0.484375 0.1875zm0.46875 1.375l0 7.28125l-0.9375 0l0 -7.28125l0.9375 0zm5.536499 -0.125q1.296814 0 2.124939 0.8125q0.828125 0.796875 0.828125 2.328125l0 4.265625l-0.921875 0l0 -4.15625q0 -1.1875 -0.59375 -1.8125q-0.59375 -0.625 -1.609314 -0.625q-1.0625 0 -1.6875 0.671875q-0.625 0.65625 -0.625 1.953125l0 3.96875l-0.9375 0l0 -7.28125l0.9375 0l0 1.25q0.34375 -0.671875 1.0 -1.015625q0.65625 -0.359375 1.484375 -0.359375zm11.6085205 3.390625q0 0.484375 -0.03125 0.734375l-6.03125 0q0.03125 0.828125 0.390625 1.421875q0.359375 0.578125 0.9375 0.875q0.59375 0.296875 1.296875 0.296875q0.90625 0 1.515625 -0.4375q0.625 -0.4375 0.828125 -1.1875l0.984375 0q-0.265625 1.078125 -1.140625 1.75q-0.875 0.671875 -2.1875 0.671875q-1.03125 0 -1.84375 -0.453125q-0.8125 -0.46875 -1.28125 -1.3125q-0.453125 -0.84375 -0.453125 -1.984375q0 -1.125 0.453125 -1.984375q0.453125 -0.859375 1.265625 -1.3125q0.8125 -0.453125 1.859375 -0.453125q1.03125 0 1.8125 0.453125q0.78125 0.453125 1.203125 1.234375q0.421875 0.765625 0.421875 1.6875zm-0.953125 -0.015625q0.015625 -0.8125 -0.328125 -1.390625q-0.34375 -0.578125 -0.9375 -0.859375q-0.578125 -0.296875 -1.265625 -0.296875q-1.046875 0 -1.78125 0.671875q-0.71875 0.65625 -0.796875 1.875l5.109375 0zm3.586914 -1.953125q0.3125 -0.671875 0.9375 -1.046875q0.640625 -0.375 1.546875 -0.375l0 0.96875l-0.25 0q-1.015625 0 -1.625 0.546875q-0.609375 0.546875 -0.609375 1.828125l0 4.0625l-0.9375 0l0 -7.28125l0.9375 0l0 1.296875z" fill-rule="nonzero"/><path fill="#000000" fill-opacity="0.0" d="m50.36483 444.48557l864.9449 0" fill-rule="evenodd"/><path stroke="#0c322c" stroke-width="1.0" stroke-linejoin="round" stroke-linecap="butt" d="m50.36483 444.48557l864.9449 0" fill-rule="evenodd"/><path fill="#000000" fill-opacity="0.0" d="m50.36483 148.60367l864.9449 0" fill-rule="evenodd"/><path stroke="#0c322c" stroke-width="1.0" stroke-linejoin="round" stroke-linecap="butt" d="m54.15483 148.60367l861.15485 0" fill-rule="evenodd"/><path fill="#0c322c" stroke="#0c322c" stroke-width="1.0" stroke-linecap="butt" d="m50.86483 148.60367c0 -0.9085083 0.73649216 -1.644989 1.6450005 -1.644989c0.9085083 0 1.6450005 0.7364807 1.6450005 1.644989c0 0.9085083 -0.73649216 1.6450043 -1.6450005 1.6450043c-0.9085083 0 -1.6450005 -0.736496 -1.6450005 -1.6450043z" fill-rule="nonzero"/><path fill="#000000" fill-opacity="0.0" d="m52.17848 124.20998l864.9449 0" fill-rule="evenodd"/><path stroke="#0c322c" stroke-width="1.0" stroke-linejoin="round" stroke-linecap="butt" d="m55.96848 124.20998l861.15485 0" fill-rule="evenodd"/><path fill="#0c322c" stroke="#0c322c" stroke-width="1.0" stroke-linecap="butt" d="m52.67848 124.20998c0 -0.9085083 0.73649216 -1.6450043 1.6450005 -1.6450043c0.9085083 0 1.6450005 0.736496 1.6450005 1.6450043c0 0.9085083 -0.73649216 1.6449966 -1.6450005 1.6449966c-0.9085083 0 -1.6450005 -0.73648834 -1.6450005 -1.6449966z" fill-rule="nonzero"/><path fill="#000000" fill-opacity="0.0" d="m52.17848 98.62205l864.9449 0" fill-rule="evenodd"/><path stroke="#0c322c" stroke-width="1.0" stroke-linejoin="round" stroke-linecap="butt" d="m55.96848 98.62205l861.15485 0" fill-rule="evenodd"/><path fill="#0c322c" stroke="#0c322c" stroke-width="1.0" stroke-linecap="butt" d="m52.67848 98.62205c0 -0.9085083 0.73649216 -1.6449966 1.6450005 -1.6449966c0.9085083 0 1.6450005 0.73648834 1.6450005 1.6449966c0 0.9085083 -0.73649216 1.6449966 -1.6450005 1.6449966c-0.9085083 0 -1.6450005 -0.73648834 -1.6450005 -1.6449966z" fill-rule="nonzero"/><path fill="#000000" fill-opacity="0.0" d="m247.61154 416.76642l0.12599182 27.40155" fill-rule="evenodd"/><path stroke="#0c322c" stroke-width="1.0" stroke-linejoin="round" stroke-linecap="butt" d="m247.61154 416.76642l0.12599182 27.40155" fill-rule="evenodd"/><path fill="#000000" fill-opacity="0.0" d="m730.77167 416.76642l0.50390625 28.0" fill-rule="evenodd"/><path stroke="#0c322c" stroke-width="1.0" stroke-linejoin="round" stroke-linecap="butt" d="m730.77167 416.76642l0.50390625 28.0" fill-rule="evenodd"/><path fill="#000000" fill-opacity="0.0" d="m104.54068 148.91077l-0.7873993 30.897629" fill-rule="evenodd"/><path stroke="#0c322c" stroke-width="1.0" stroke-linejoin="round" stroke-linecap="butt" d="m104.54068 148.91077l-0.6345444 24.899582" fill-rule="evenodd"/><path fill="#0c322c" stroke="#0c322c" stroke-width="1.0" stroke-linecap="butt" d="m102.254944 173.76826l1.5355835 4.578705l1.7668076 -4.4945374z" fill-rule="evenodd"/><path fill="#000000" fill-opacity="0.0" d="m248.30446 148.31233l-0.69291687 31.496063" fill-rule="evenodd"/><path stroke="#0c322c" stroke-width="1.0" stroke-linejoin="round" stroke-linecap="butt" d="m248.30446 148.31233l-0.5609436 25.497528" fill-rule="evenodd"/><path fill="#0c322c" stroke="#0c322c" stroke-width="1.0" stroke-linecap="butt" d="m246.09218 173.77351l1.5515289 4.5733337l1.7511444 -4.5006714z" fill-rule="evenodd"/><path fill="#000000" fill-opacity="0.0" d="m391.46982 149.50919l0 30.29921" fill-rule="evenodd"/><path stroke="#0c322c" stroke-width="1.0" stroke-linejoin="round" stroke-linecap="butt" d="m391.46982 149.50919l0 24.29921" fill-rule="evenodd"/><path fill="#0c322c" stroke="#0c322c" stroke-width="1.0" stroke-linecap="butt" d="m389.81808 173.8084l1.6517334 4.538101l1.6517334 -4.538101z" fill-rule="evenodd"/><path fill="#000000" fill-opacity="0.0" d="m586.34644 150.71654l0.56695557 30.29921" fill-rule="evenodd"/><path stroke="#0c322c" stroke-width="1.0" stroke-linejoin="round" stroke-linecap="butt" d="m586.34644 150.71654l0.4547119 24.300262" fill-rule="evenodd"/><path fill="#0c322c" stroke="#0c322c" stroke-width="1.0" stroke-linecap="butt" d="m585.1497 175.0477l1.7363281 4.5064087l1.5665283 -4.568207z" fill-rule="evenodd"/><path fill="#000000" fill-opacity="0.0" d="m731.2756 149.51968l-0.50390625 31.496063" fill-rule="evenodd"/><path stroke="#0c322c" stroke-width="1.0" stroke-linejoin="round" stroke-linecap="butt" d="m731.2756 149.51968l-0.40795898 25.496826" fill-rule="evenodd"/><path fill="#0c322c" stroke="#0c322c" stroke-width="1.0" stroke-linecap="butt" d="m729.2161 174.9901l1.5789185 4.5639343l1.7241211 -4.511093z" fill-rule="evenodd"/><path fill="#000000" fill-opacity="0.0" d="m874.4724 148.92126l0.15753174 32.094482" fill-rule="evenodd"/><path stroke="#0c322c" stroke-width="1.0" stroke-linejoin="round" stroke-linecap="butt" d="m874.4724 148.92126l0.12805176 26.094559" fill-rule="evenodd"/><path fill="#0c322c" stroke="#0c322c" stroke-width="1.0" stroke-linecap="butt" d="m872.9488 175.02393l1.6739502 4.5299377l1.6294556 -4.5461426z" fill-rule="evenodd"/><path fill="#000000" fill-opacity="0.0" d="m275.04987 124.56431l0.5984192 54.047234" fill-rule="evenodd"/><path stroke="#0c322c" stroke-width="1.0" stroke-linejoin="round" stroke-linecap="butt" d="m275.04987 124.56431l0.5319824 48.047615" fill-rule="evenodd"/><path fill="#0c322c" stroke="#0c322c" stroke-width="1.0" stroke-linecap="butt" d="m273.93024 172.6302l1.7018738 4.5195312l1.6013794 -4.5561066z" fill-rule="evenodd"/><path fill="#000000" fill-opacity="0.0" d="m750.2966 124.56431l-0.5983887 56.44094" fill-rule="evenodd"/><path stroke="#0c322c" stroke-width="1.0" stroke-linejoin="round" stroke-linecap="butt" d="m750.2966 124.56431l-0.534729 50.441277" fill-rule="evenodd"/><path fill="#0c322c" stroke="#0c322c" stroke-width="1.0" stroke-linecap="butt" d="m748.1101 174.98807l1.6035767 4.555359l1.699707 -4.5203247z" fill-rule="evenodd"/><path fill="#000000" fill-opacity="0.0" d="m368.91077 98.42519l0 79.59055" fill-rule="evenodd"/><path stroke="#0c322c" stroke-width="1.0" stroke-linejoin="round" stroke-linecap="butt" d="m368.91077 98.42519l0 73.59055" fill-rule="evenodd"/><path fill="#0c322c" stroke="#0c322c" stroke-width="1.0" stroke-linecap="butt" d="m367.25903 172.01575l1.6517334 4.538101l1.6517334 -4.538101z" fill-rule="evenodd"/><path fill="#000000" fill-opacity="0.0" d="m567.92126 98.42519l1.1968384 81.98426" fill-rule="evenodd"/><path stroke="#0c322c" stroke-width="1.0" stroke-linejoin="round" stroke-linecap="butt" d="m567.92126 98.42519l1.1092529 75.984886" fill-rule="evenodd"/><path fill="#0c322c" stroke="#0c322c" stroke-width="1.0" stroke-linecap="butt" d="m567.37897 174.4342l1.7177734 4.513504l1.5853271 -4.561737z" fill-rule="evenodd"/><path fill="#000000" fill-opacity="0.0" d="m851.2861 99.01837l1.7952881 84.34645" fill-rule="evenodd"/><path stroke="#0c322c" stroke-width="1.0" stroke-linejoin="round" stroke-linecap="butt" d="m851.2861 99.01837l1.6676025 78.34781" fill-rule="evenodd"/><path fill="#0c322c" stroke="#0c322c" stroke-width="1.0" stroke-linecap="butt" d="m851.3023 177.40134l1.7479248 4.5019226l1.5548096 -4.57222z" fill-rule="evenodd"/><path fill="#000000" fill-opacity="0.0" d="m65.93964 129.91077l142.58267 0l0 13.480316l-142.58267 0z" fill-rule="evenodd"/><path fill="#000000" d="m83.06464 133.13155l0 7.359375l-0.734375 0l0 -5.875l-2.625 5.875l-0.546875 0l-2.625 -5.84375l0 5.84375l-0.734375 0l0 -7.359375l0.78125 0l2.84375 6.375l2.84375 -6.375l0.796875 0zm1.3632812 4.4375q0 -0.890625 0.34375 -1.5625q0.359375 -0.6875 1.0 -1.046875q0.640625 -0.375 1.4375 -0.375q0.828125 0 1.421875 0.390625q0.609375 0.375 0.875 0.96875l0 -1.265625l0.75 0l0 5.8125l-0.75 0l0 -1.296875q-0.28125 0.609375 -0.890625 1.0q-0.59375 0.375 -1.421875 0.375q-0.78125 0 -1.421875 -0.359375q-0.640625 -0.375 -1.0 -1.0625q-0.34375 -0.6875 -0.34375 -1.578125zm5.078125 0.015625q0 -0.703125 -0.296875 -1.234375q-0.28125 -0.53125 -0.78125 -0.8125q-0.484375 -0.296875 -1.078125 -0.296875q-0.625 0 -1.125 0.28125q-0.484375 0.265625 -0.765625 0.796875q-0.28125 0.53125 -0.28125 1.25q0 0.71875 0.28125 1.265625q0.28125 0.53125 0.765625 0.8125q0.5 0.28125 1.125 0.28125q0.59375 0 1.078125 -0.28125q0.5 -0.296875 0.78125 -0.828125q0.296875 -0.53125 0.296875 -1.234375zm5.177414 -3.015625q1.046875 0 1.703125 0.640625q0.671875 0.640625 0.671875 1.875l0 3.40625l-0.734375 0l0 -3.328125q0 -0.9375 -0.484375 -1.4375q-0.46875 -0.515625 -1.296875 -0.515625q-0.84375 0 -1.34375 0.546875q-0.5 0.53125 -0.5 1.5625l0 3.171875l-0.734375 0l0 -5.8125l0.734375 0l0 0.984375q0.28125 -0.53125 0.796875 -0.8125q0.53125 -0.28125 1.1875 -0.28125zm3.6829681 3.0q0 -0.890625 0.34375 -1.5625q0.359375 -0.6875 1.0 -1.046875q0.640625 -0.375 1.4375 -0.375q0.828125 0 1.421875 0.390625q0.609375 0.375 0.875 0.96875l0 -1.265625l0.75 0l0 5.8125l-0.75 0l0 -1.296875q-0.28125 0.609375 -0.890625 1.0q-0.59375 0.375 -1.421875 0.375q-0.78125 0 -1.421875 -0.359375q-0.640625 -0.375 -1.0 -1.0625q-0.34375 -0.6875 -0.34375 -1.578125zm5.078125 0.015625q0 -0.703125 -0.296875 -1.234375q-0.28125 -0.53125 -0.78125 -0.8125q-0.484375 -0.296875 -1.078125 -0.296875q-0.625 0 -1.125 0.28125q-0.484375 0.265625 -0.765625 0.796875q-0.28125 0.53125 -0.28125 1.25q0 0.71875 0.28125 1.265625q0.28125 0.53125 0.765625 0.8125q0.5 0.28125 1.125 0.28125q0.59375 0 1.078125 -0.28125q0.5 -0.296875 0.78125 -0.828125q0.296875 -0.53125 0.296875 -1.234375zm4.896164 -3.0q0.8125 0 1.421875 0.390625q0.609375 0.375 0.875 0.96875l0 -1.265625l0.75 0l0 5.96875q0 0.796875 -0.359375 1.40625q-0.34375 0.625 -0.96875 0.953125q-0.609375 0.34375 -1.390625 0.34375q-1.125 0 -1.875 -0.53125q-0.734375 -0.53125 -0.90625 -1.453125l0.734375 0q0.1875 0.609375 0.71875 0.96875q0.546875 0.359375 1.328125 0.359375q0.5625 0 1.0 -0.25q0.453125 -0.234375 0.703125 -0.703125q0.265625 -0.46875 0.265625 -1.09375l0 -1.453125q-0.28125 0.609375 -0.890625 1.0q-0.59375 0.375 -1.40625 0.375q-0.796875 0 -1.4375 -0.359375q-0.640625 -0.375 -1.0 -1.0625q-0.34375 -0.6875 -0.34375 -1.578125q0 -0.890625 0.34375 -1.5625q0.359375 -0.6875 1.0 -1.046875q0.640625 -0.375 1.4375 -0.375zm2.296875 3.0q0 -0.703125 -0.296875 -1.234375q-0.28125 -0.53125 -0.78125 -0.8125q-0.484375 -0.296875 -1.078125 -0.296875q-0.625 0 -1.125 0.28125q-0.484375 0.265625 -0.765625 0.796875q-0.28125 0.53125 -0.28125 1.25q0 0.71875 0.28125 1.265625q0.28125 0.53125 0.765625 0.8125q0.5 0.28125 1.125 0.28125q0.59375 0 1.078125 -0.28125q0.5 -0.296875 0.78125 -0.828125q0.296875 -0.53125 0.296875 -1.234375zm7.708664 -0.296875q0 0.375 -0.015625 0.578125l-4.828125 0q0.03125 0.671875 0.3125 1.140625q0.296875 0.46875 0.765625 0.703125q0.46875 0.234375 1.03125 0.234375q0.71875 0 1.203125 -0.34375q0.5 -0.359375 0.671875 -0.953125l0.78125 0q-0.21875 0.859375 -0.921875 1.390625q-0.6875 0.53125 -1.734375 0.53125q-0.828125 0 -1.484375 -0.359375q-0.640625 -0.375 -1.015625 -1.046875q-0.359375 -0.671875 -0.359375 -1.578125q0 -0.90625 0.359375 -1.578125q0.359375 -0.6875 1.0 -1.046875q0.65625 -0.375 1.5 -0.375q0.828125 0 1.453125 0.375q0.625 0.359375 0.953125 0.96875q0.328125 0.609375 0.328125 1.359375zm-0.75 -0.03125q0.015625 -0.640625 -0.265625 -1.09375q-0.265625 -0.46875 -0.734375 -0.703125q-0.46875 -0.234375 -1.03125 -0.234375q-0.828125 0 -1.421875 0.53125q-0.578125 0.53125 -0.640625 1.5l4.09375 0zm9.050125 -2.6875q1.015625 0 1.65625 0.640625q0.65625 0.640625 0.65625 1.875l0 3.40625l-0.734375 0l0 -3.328125q0 -0.9375 -0.46875 -1.4375q-0.453125 -0.515625 -1.234375 -0.515625q-0.828125 0 -1.328125 0.546875q-0.484375 0.546875 -0.484375 1.578125l0 3.15625l-0.734375 0l0 -3.328125q0 -0.9375 -0.453125 -1.4375q-0.453125 -0.515625 -1.25 -0.515625q-0.828125 0 -1.328125 0.546875q-0.484375 0.546875 -0.484375 1.578125l0 3.15625l-0.734375 0l0 -5.8125l0.734375 0l0 1.0q0.28125 -0.546875 0.796875 -0.828125q0.515625 -0.28125 1.140625 -0.28125q0.75 0 1.3125 0.359375q0.578125 0.359375 0.84375 1.0625q0.234375 -0.6875 0.796875 -1.046875q0.5625 -0.375 1.296875 -0.375zm9.218918 2.71875q0 0.375 -0.015625 0.578125l-4.828125 0q0.03125 0.671875 0.3125 1.140625q0.296875 0.46875 0.765625 0.703125q0.46875 0.234375 1.03125 0.234375q0.71875 0 1.203125 -0.34375q0.5 -0.359375 0.671875 -0.953125l0.78125 0q-0.21875 0.859375 -0.921875 1.390625q-0.6875 0.53125 -1.734375 0.53125q-0.828125 0 -1.484375 -0.359375q-0.640625 -0.375 -1.015625 -1.046875q-0.359375 -0.671875 -0.359375 -1.578125q0 -0.90625 0.359375 -1.578125q0.359375 -0.6875 1.0 -1.046875q0.65625 -0.375 1.5 -0.375q0.828125 0 1.453125 0.375q0.625 0.359375 0.953125 0.96875q0.328125 0.609375 0.328125 1.359375zm-0.75 -0.03125q0.015625 -0.640625 -0.265625 -1.09375q-0.265625 -0.46875 -0.734375 -0.703125q-0.46875 -0.234375 -1.03125 -0.234375q-0.828125 0 -1.421875 0.53125q-0.578125 0.53125 -0.640625 1.5l4.09375 0zm4.847 -2.6875q1.046875 0 1.703125 0.640625q0.671875 0.640625 0.671875 1.875l0 3.40625l-0.734375 0l0 -3.328125q0 -0.9375 -0.484375 -1.4375q-0.46875 -0.515625 -1.296875 -0.515625q-0.84375 0 -1.34375 0.546875q-0.5 0.53125 -0.5 1.5625l0 3.171875l-0.734375 0l0 -5.8125l0.734375 0l0 0.984375q0.28125 -0.53125 0.796875 -0.8125q0.53125 -0.28125 1.1875 -0.28125zm4.995468 0.734375l0 3.609375q0 0.53125 0.203125 0.734375q0.203125 0.203125 0.703125 0.203125l0.6875 0l0 0.640625l-0.796875 0q-0.796875 0 -1.1875 -0.359375q-0.375 -0.375 -0.375 -1.21875l0 -3.609375l-0.8125 0l0 -0.625l0.8125 0l0 -1.46875l0.765625 0l0 1.46875l1.59375 0l0 0.625l-1.59375 0zm11.354141 5.1875l-0.75 0l-4.125 -6.265625l0 6.265625l-0.734375 0l0 -7.453125l0.734375 0l4.125 6.265625l0 -6.265625l0.75 0l0 7.453125zm6.950882 -3.203125q0 0.375 -0.015625 0.578125l-4.828125 0q0.03125 0.671875 0.3125 1.140625q0.296875 0.46875 0.765625 0.703125q0.46875 0.234375 1.03125 0.234375q0.71875 0 1.203125 -0.34375q0.5 -0.359375 0.671875 -0.953125l0.78125 0q-0.21875 0.859375 -0.921875 1.390625q-0.6875 0.53125 -1.734375 0.53125q-0.828125 0 -1.484375 -0.359375q-0.640625 -0.375 -1.015625 -1.046875q-0.359375 -0.671875 -0.359375 -1.578125q0 -0.90625 0.359375 -1.578125q0.359375 -0.6875 1.0 -1.046875q0.65625 -0.375 1.5 -0.375q0.828125 0 1.453125 0.375q0.625 0.359375 0.953125 0.96875q0.328125 0.609375 0.328125 1.359375zm-0.75 -0.03125q0.015625 -0.640625 -0.265625 -1.09375q-0.265625 -0.46875 -0.734375 -0.703125q-0.46875 -0.234375 -1.03125 -0.234375q-0.828125 0 -1.421875 0.53125q-0.578125 0.53125 -0.640625 1.5l4.09375 0zm3.0970001 -1.953125l0 3.609375q0 0.53125 0.203125 0.734375q0.203125 0.203125 0.703125 0.203125l0.6875 0l0 0.640625l-0.796875 0q-0.796875 0 -1.1875 -0.359375q-0.375 -0.375 -0.375 -1.21875l0 -3.609375l-0.8125 0l0 -0.625l0.8125 0l0 -1.46875l0.765625 0l0 1.46875l1.59375 0l0 0.625l-1.59375 0zm10.496796 -0.625l-1.828125 5.8125l-0.75 0l-1.609375 -4.875l-1.609375 4.875l-0.75 0l-1.828125 -5.8125l0.765625 0l1.4375 5.0625l1.640625 -5.0625l0.734375 0l1.609375 5.0625l1.453125 -5.0625l0.734375 0zm3.5599365 5.890625q-0.828125 0 -1.484375 -0.359375q-0.65625 -0.375 -1.03125 -1.046875q-0.375 -0.671875 -0.375 -1.578125q0 -0.90625 0.375 -1.578125q0.390625 -0.6875 1.046875 -1.046875q0.65625 -0.375 1.484375 -0.375q0.8125 0 1.484375 0.375q0.671875 0.359375 1.046875 1.046875q0.375 0.671875 0.375 1.578125q0 0.890625 -0.390625 1.578125q-0.375 0.671875 -1.046875 1.046875q-0.671875 0.359375 -1.484375 0.359375zm0 -0.640625q0.5625 0 1.046875 -0.265625q0.5 -0.265625 0.796875 -0.78125q0.3125 -0.53125 0.3125 -1.296875q0 -0.765625 -0.296875 -1.296875q-0.296875 -0.53125 -0.796875 -0.78125q-0.484375 -0.265625 -1.0625 -0.265625q-0.578125 0 -1.0625 0.265625q-0.484375 0.25 -0.78125 0.78125q-0.296875 0.53125 -0.296875 1.296875q0 0.765625 0.296875 1.296875q0.296875 0.515625 0.78125 0.78125q0.484375 0.265625 1.0625 0.265625zm5.028885 -4.21875q0.25 -0.546875 0.75 -0.84375q0.515625 -0.296875 1.25 -0.296875l0 0.78125l-0.203125 0q-0.8125 0 -1.3125 0.4375q-0.484375 0.4375 -0.484375 1.453125l0 3.25l-0.734375 0l0 -5.8125l0.734375 0l0 1.03125zm6.263855 4.78125l-2.40625 -2.609375l0 2.609375l-0.734375 0l0 -7.890625l0.734375 0l0 4.671875l2.34375 -2.59375l1.046875 0l-2.75 2.890625l2.78125 2.921875l-1.015625 0z" fill-rule="nonzero"/><path fill="#000000" fill-opacity="0.0" d="m65.93964 107.526245l142.58267 0l0 13.480316l-142.58267 0z" fill-rule="evenodd"/><path fill="#000000" d="m81.68964 110.65328l-2.8125 7.453125l-0.859375 0l-2.828125 -7.453125l0.8125 0l2.4375 6.640625l2.46875 -6.640625l0.78125 0zm1.8662872 6.84375l2.671875 0l0 0.609375l-3.40625 0l0 -7.453125l0.734375 0l0 6.84375zm8.064453 -1.15625l-3.390625 0l-0.65625 1.765625l-0.78125 0l2.71875 -7.359375l0.84375 0l2.703125 7.359375l-0.796875 0l-0.640625 -1.765625zm-0.234375 -0.625l-1.46875 -4.03125l-1.46875 4.03125l2.9375 0zm8.479202 2.390625l-0.75 0l-4.125 -6.265625l0 6.265625l-0.734375 0l0 -7.453125l0.734375 0l4.125 6.265625l0 -6.265625l0.75 0l0 7.453125zm4.0894775 -6.96875l0 -0.671875l1.8125 0l0 7.640625l-0.75 0l0 -6.96875l-1.0625 0z" fill-rule="nonzero"/><path fill="#000000" fill-opacity="0.0" d="m65.93964 80.33465l142.58267 0l0 13.480316l-142.58267 0z" fill-rule="evenodd"/><path fill="#000000" d="m81.68964 83.46168l-2.8125 7.453125l-0.859375 0l-2.828125 -7.453125l0.8125 0l2.4375 6.640625l2.46875 -6.640625l0.78125 0zm1.8662872 6.84375l2.671875 0l0 0.609375l-3.40625 0l0 -7.453125l0.734375 0l0 6.84375zm8.064453 -1.15625l-3.390625 0l-0.65625 1.765625l-0.78125 0l2.71875 -7.359375l0.84375 0l2.703125 7.359375l-0.796875 0l-0.640625 -1.765625zm-0.234375 -0.625l-1.46875 -4.03125l-1.46875 4.03125l2.9375 0zm8.479202 2.390625l-0.75 0l-4.125 -6.265625l0 6.265625l-0.734375 0l0 -7.453125l0.734375 0l4.125 6.265625l0 -6.265625l0.75 0l0 7.453125zm4.3082275 -0.59375q1.953125 -1.46875 3.015625 -2.625q1.078125 -1.171875 1.078125 -2.296875q0 -0.734375 -0.375 -1.171875q-0.359375 -0.4375 -1.1875 -0.4375q-0.8125 0 -1.25 0.515625q-0.4375 0.5 -0.5 1.328125l-0.71875 0q0.0625 -1.171875 0.71875 -1.828125q0.671875 -0.65625 1.75 -0.65625q1.03125 0 1.671875 0.578125q0.640625 0.578125 0.640625 1.640625q0 1.296875 -1.078125 2.515625q-1.0625 1.203125 -2.625 2.34375l3.9375 0l0 0.640625l-5.078125 0l0 -0.546875z" fill-rule="nonzero"/><path fill="#000000" fill-opacity="0.0" d="m397.40158 31.863518l199.14963 0l0 48.472443l-199.14963 0z" fill-rule="evenodd"/><path fill="#595959" d="m421.52658 47.21602l0 16.6875l-2.734375 0l0 -7.296875l-7.859375 0l0 7.296875l-2.734375 0l0 -16.6875l2.734375 0l0 7.15625l7.859375 0l0 -7.15625l2.734375 0zm9.326202 16.90625q-1.875 0 -3.390625 -0.84375q-1.5 -0.859375 -2.375 -2.40625q-0.859375 -1.546875 -0.859375 -3.59375q0 -2.015625 0.890625 -3.578125q0.890625 -1.5625 2.421875 -2.390625q1.546875 -0.84375 3.4375 -0.84375q1.890625 0 3.421875 0.84375q1.546875 0.828125 2.4375 2.390625q0.890625 1.5625 0.890625 3.578125q0 2.015625 -0.921875 3.578125q-0.90625 1.5625 -2.484375 2.421875q-1.5625 0.84375 -3.46875 0.84375zm0 -2.375q1.0625 0 1.984375 -0.5q0.921875 -0.515625 1.5 -1.515625q0.578125 -1.015625 0.578125 -2.453125q0 -1.4375 -0.5625 -2.4375q-0.546875 -1.0 -1.46875 -1.5q-0.90625 -0.5 -1.953125 -0.5q-1.0625 0 -1.96875 0.5q-0.890625 0.5 -1.421875 1.5q-0.515625 1.0 -0.515625 2.4375q0 2.140625 1.078125 3.3125q1.09375 1.15625 2.75 1.15625zm27.3432 -11.0625l-4.109375 13.21875l-2.875 0l-2.671875 -9.765625l-2.65625 9.765625l-2.875 0l-4.140625 -13.21875l2.796875 0l2.75 10.625l2.8125 -10.625l2.859375 0l2.6875 10.578125l2.734375 -10.578125l2.6875 0zm9.664917 -1.75q-0.734375 0 -1.25 -0.5q-0.5 -0.515625 -0.5 -1.265625q0 -0.734375 0.5 -1.234375q0.515625 -0.515625 1.25 -0.515625q0.71875 0 1.21875 0.515625q0.515625 0.5 0.515625 1.234375q0 0.75 -0.515625 1.265625q-0.5 0.5 -1.21875 0.5zm1.34375 1.75l0 13.21875l-2.734375 0l0 -13.21875l2.734375 0zm6.789093 2.234375l0 7.3125q0 0.75 0.34375 1.078125q0.359375 0.3125 1.203125 0.3125l1.671875 0l0 2.28125l-2.15625 0q-1.84375 0 -2.828125 -0.859375q-0.984375 -0.875 -0.984375 -2.8125l0 -7.3125l-1.5625 0l0 -2.234375l1.5625 0l0 -3.296875l2.75 0l0 3.296875l3.21875 0l0 2.234375l-3.21875 0zm33.69922 -5.703125l-4.9375 16.6875l-3.09375 0l-3.515625 -12.625l-3.71875 12.625l-3.0625 0.03125l-4.734375 -16.71875l2.90625 0l3.453125 13.59375l3.75 -13.59375l3.0625 0l3.484375 13.515625l3.484375 -13.515625l2.921875 0zm7.9915466 16.90625q-1.875 0 -3.390625 -0.84375q-1.5 -0.859375 -2.375 -2.40625q-0.859375 -1.546875 -0.859375 -3.59375q0 -2.015625 0.890625 -3.578125q0.890625 -1.5625 2.421875 -2.390625q1.546875 -0.84375 3.4375 -0.84375q1.890625 0 3.421875 0.84375q1.546875 0.828125 2.4375 2.390625q0.890625 1.5625 0.890625 3.578125q0 2.015625 -0.921875 3.578125q-0.90625 1.5625 -2.484375 2.421875q-1.5625 0.84375 -3.46875 0.84375zm0 -2.375q1.0625 0 1.984375 -0.5q0.921875 -0.515625 1.5 -1.515625q0.578125 -1.015625 0.578125 -2.453125q0 -1.4375 -0.5625 -2.4375q-0.546875 -1.0 -1.46875 -1.5q-0.90625 -0.5 -1.953125 -0.5q-1.0625 0 -1.96875 0.5q-0.890625 0.5 -1.421875 1.5q-0.515625 1.0 -0.515625 2.4375q0 2.140625 1.078125 3.3125q1.09375 1.15625 2.75 1.15625zm12.311951 -9.140625q0.609375 -1.015625 1.59375 -1.578125q1.0 -0.5625 2.375 -0.5625l0 2.828125l-0.703125 0q-1.609375 0 -2.4375 0.828125q-0.828125 0.8125 -0.828125 2.828125l0 6.953125l-2.734375 0l0 -13.21875l2.734375 0l0 1.921875zm11.716003 4.703125l6.09375 6.59375l-3.6875 0l-4.90625 -5.6875l0 5.6875l-2.734375 0l0 -17.765625l2.734375 0l0 10.328125l4.8125 -5.78125l3.78125 0l-6.09375 6.625zm12.858459 6.8125q-1.546875 0 -2.796875 -0.5625q-1.234375 -0.5625 -1.953125 -1.53125q-0.71875 -0.984375 -0.765625 -2.1875l2.828125 0q0.078125 0.84375 0.8125 1.40625q0.734375 0.5625 1.828125 0.5625q1.15625 0 1.78125 -0.4375q0.640625 -0.4375 0.640625 -1.140625q0 -0.75 -0.703125 -1.109375q-0.703125 -0.359375 -2.234375 -0.78125q-1.5 -0.40625 -2.4375 -0.796875q-0.9375 -0.390625 -1.625 -1.171875q-0.671875 -0.796875 -0.671875 -2.09375q0 -1.0625 0.625 -1.9375q0.625 -0.875 1.78125 -1.375q1.171875 -0.5 2.6875 -0.5q2.25 0 3.625 1.140625q1.390625 1.140625 1.484375 3.109375l-2.734375 0q-0.078125 -0.890625 -0.734375 -1.421875q-0.640625 -0.53125 -1.75 -0.53125q-1.078125 0 -1.65625 0.421875q-0.5625 0.40625 -0.5625 1.078125q0 0.515625 0.375 0.875q0.390625 0.359375 0.9375 0.578125q0.546875 0.203125 1.640625 0.5q1.4375 0.390625 2.359375 0.796875q0.921875 0.390625 1.59375 1.15625q0.671875 0.765625 0.6875 2.03125q0 1.140625 -0.625 2.03125q-0.609375 0.875 -1.75 1.390625q-1.140625 0.5 -2.6875 0.5z" fill-rule="nonzero"/></g></svg>